<?xml version="1.0" encoding="utf-8"?>
<!-- Generator: Adobe Illustrator 27.3.0, SVG Export Plug-In . SVG Version: 6.00 Build 0)  -->
<svg version="1.1" id="Livello_1" xmlns="http://www.w3.org/2000/svg" xmlns:xlink="http://www.w3.org/1999/xlink" x="0px" y="0px"
	 viewBox="0 0 1000 1000" style="enable-background:new 0 0 1000 1000;" xml:space="preserve">
<g>
	<g id="E7RqFx.tif">
		<g>
			<g>
				<path d="M54.38,827.38c4.55-25.82,20.82-43.9,38.71-61.7c119.62-119.01,238.75-238.51,358.3-357.59
					c6.37-6.35,6.81-10.91,3.1-18.85C381.65,233.05,483.8,48.36,654.57,27.08C796.12,9.43,923,106.13,943.06,246.96
					c22.7,159.34-108.71,301.59-269.39,291.8c-33.29-2.03-64.99-9.81-95.12-24.05c-4.5-2.13-8.12-4.32-13.04,0.65
					c-52.37,52.9-105.03,105.52-157.59,158.23c-0.48,0.48-0.73,1.2-3.82,4.54c3.38,2.04,7.33,3.5,10.06,6.2
					c26.96,26.68,53.76,53.52,80.53,80.39c20.74,20.82,20.66,43.13-0.27,64.11c-43.57,43.66-87.17,87.29-130.84,130.85
					c-20.51,20.46-42.86,20.4-63.31,0.01c-26.86-26.78-53.7-53.58-80.39-80.53c-2.71-2.74-4.34-6.54-8.34-12.78
					c-8.69,10.08-14.34,17.35-20.73,23.9c-22.25,22.83-49.37,30.58-79.72,21.65c-30.39-8.95-48.74-30.22-55.03-61.54
					c-0.27-1.34-1.09-2.58-1.66-3.86C54.38,840.15,54.38,833.77,54.38,827.38z M786.82,282.08c0.06-54.52-44.01-98.92-98.38-99.13
					c-54.56-0.2-99.76,45.05-99.34,99.47c0.42,54.58,44.6,98.4,99.15,98.35C742.91,380.71,786.76,336.81,786.82,282.08z"/>
			</g>
		</g>
	</g>
</g>
</svg>
