<?xml version="1.0" encoding="utf-8"?>
<!-- Generator: Adobe Illustrator 27.3.0, SVG Export Plug-In . SVG Version: 6.00 Build 0)  -->
<svg version="1.1" id="Livello_1" xmlns="http://www.w3.org/2000/svg" xmlns:xlink="http://www.w3.org/1999/xlink" x="0px" y="0px"
	 viewBox="0 0 1000 1000" style="enable-background:new 0 0 1000 1000;" xml:space="preserve">
<g>
	<g id="L1LozI.tif">
		<g>
			<path d="M25,505.66c6.73-22.82,22.83-33.78,45.35-39.62c52.9-13.73,105.35-29.21,158.12-43.47c7.44-2.01,10.32-5.55,11.77-12.66
				c7.93-39.04,16.26-78.01,24.49-116.99c0.56-2.66,1.45-5.24,2.34-8.39c34.26,7.24,68.06,14.35,101.85,21.52
				c50.47,10.7,100.91,21.54,151.43,32c4.59,0.95,9.88,0.4,14.48-0.82c35.52-9.43,70.79-19.8,106.45-28.62
				c21.82-5.39,43.44,6.96,51.46,28c3.94,10.35,6.91,21.15,9.35,31.97c1.43,6.35,4.28,9.15,10.62,10.47
				c71.38,14.84,142.7,29.95,214.04,45c3.59,0.76,7.16,1.66,11.59,2.7c-5.51,26-10.93,51.58-16.36,77.17
				c-8.01,37.77-15.89,75.56-24.06,113.3c-6.5,30.01-29.06,44.13-59.42,37.67c-19.53-4.16-39.09-8.18-60.23-12.6
				c5.74,20.77,10.95,40,16.36,59.17c5.57,19.71,1.73,37.14-14.13,50.27c-6.4,5.3-14.89,8.91-23.02,11.18
				C609.65,804.2,461.72,845.15,313.8,886.16c-41.07,11.39-82.15,22.74-123.23,34.11c-32.69,9.04-55.52-3.47-64.52-35.88
				c-33.27-119.9-66.39-239.85-99.61-359.77c-0.23-0.82-0.96-1.51-1.45-2.26C25,516.8,25,511.23,25,505.66z M105.28,667.68
				c0.86,3.67,1.34,6.09,2,8.46c18.22,65.46,36.47,130.92,54.7,196.37c3.94,14.13,5.76,15.22,19.4,11.43
				c188.42-52.33,376.83-104.67,565.25-157.02c13.14-3.65,14.28-5.75,10.59-19.1c-12.1-43.76-24.17-87.53-36.31-131.28
				c-6.75-24.35-13.61-48.67-20.68-73.92C501.63,557.72,303.77,612.61,105.28,667.68z M677.96,422.19
				c-6.09-21.94-11.94-42.97-17.76-64.01c-3.78-13.67-5.75-14.78-19.68-10.92C485.2,390.3,329.88,433.33,174.56,476.38
				c-33.62,9.32-67.24,18.66-100.86,27.99c-5.92,1.64-12.46,3.88-10.54,11.43c6.06,23.86,12.93,47.51,19.57,71.55
				C281.54,532.19,479.29,477.32,677.96,422.19z M761.63,524.21c-0.28,14.37,4.47,21.47,14.72,23.82
				c22.23,5.11,44.57,9.8,66.96,14.17c10.89,2.12,19.93-3.51,22.47-14.4c5.25-22.51,9.97-45.16,14.37-67.85
				c1.91-9.84-2.87-18.51-12.61-20.88c-23.64-5.73-47.49-10.68-71.42-15.11c-9.17-1.7-16.98,2.94-19.25,12.21
				C771,480.09,766.04,504.23,761.63,524.21z"/>
			<path d="M963.69,325.98C739.72,278.6,516.48,231.37,292.07,183.9c1.58-10.91,3.07-21.48,4.66-32.04c1.66-11,3.5-21.97,5.11-32.98
				c4.41-30.13,28.14-46.98,58.05-40.71c87.08,18.26,174.14,36.64,261.19,55.06c103.67,21.93,207.32,43.99,310.99,65.89
				c33.11,6.99,46.77,25.83,42,59.07C970.88,280.47,967.27,302.69,963.69,325.98z"/>
			<path d="M163.82,752.43c0.02-8.15,4.41-14.65,12.98-17.18c22.77-6.73,45.63-13.22,68.62-19.16c10.1-2.61,19.19,2.82,22.34,13.29
				c6.66,22.15,12.92,44.43,18.65,66.84c2.93,11.45-2.2,20.27-13.73,23.72c-21.86,6.54-43.88,12.6-66,18.21
				c-11.24,2.85-20.01-1.27-23.14-11.53c-7.03-22.99-13.01-46.3-19.37-69.5C163.85,755.95,163.97,754.66,163.82,752.43z"/>
		</g>
	</g>
</g>
</svg>
